<mxfile host="app.diagrams.net" modified="2023-09-18T09:03:25.147Z" agent="Mozilla/5.0 (Macintosh; Intel Mac OS X 10_15_7) AppleWebKit/537.36 (KHTML, like Gecko) Chrome/114.0.0.0 Safari/537.36" version="21.6.9" etag="Wtrmvey7g-2O23cQrpBB" type="github">
  <diagram name="Page-1" id="mkke-e0yrgDsi8HkrFEI">
    <mxGraphModel>
      <root>
        <mxCell id="0" />
        <mxCell id="1" parent="0" />
      </root>
    </mxGraphModel>
  </diagram>
</mxfile>
